<svg xmlns="http://www.w3.org/2000/svg" id="Layer_1" data-name="Layer 1" viewBox="0 0 39.89 40.18" width="56" height="56"><defs><style>.cls-1{fill:#79b8ff;}.cls-2{fill:#2088ff;}.cls-3{fill:none;}</style></defs><title>GitHub Package Registry Icon</title><polygon class="cls-1" points="19.59 20.19 11.1 25.1 11.1 15.27 19.61 10.36 19.59 20.19"></polygon><path class="cls-2" d="M34.16,31.34a1,1,0,0,1-.5-.14l-8.52-4.88a1,1,0,0,1,1-1.73l8.52,4.88A1,1,0,0,1,35,30.83,1,1,0,0,1,34.16,31.34Z" transform="translate(-5.57 -5.45)"></path><path class="cls-2" d="M25.64,26.46h0a1,1,0,0,1-1-1L24.7,16a1,1,0,0,1,1-1,1,1,0,0,1,1,1l-.06,9.45A1,1,0,0,1,25.64,26.46Z" transform="translate(-5.57 -5.45)"></path><path class="cls-2" d="M17.37,31.19a1,1,0,0,1-.5-1.87l8.27-4.73a1,1,0,1,1,1,1.73l-8.27,4.74A1,1,0,0,1,17.37,31.19Z" transform="translate(-5.57 -5.45)"></path><path class="cls-2" d="M25.66,36.28a1,1,0,0,1-.5-.13l-8.51-4.92a1,1,0,0,1-.5-.86V20.54a1,1,0,0,1,.5-.87l8.51-4.91a1,1,0,0,1,1,0l8.51,4.91a1,1,0,0,1,.5.87v9.83a1,1,0,0,1-.5.86l-8.51,4.92A1,1,0,0,1,25.66,36.28Zm-7.51-6.49,7.51,4.34,7.51-4.34V21.11l-7.51-4.33-7.51,4.33Z" transform="translate(-5.57 -5.45)"></path><path class="cls-2" d="M34.23,13.28a2.65,2.65,0,1,1,2.65-2.65A2.65,2.65,0,0,1,34.23,13.28Zm0-3.3a.65.65,0,1,0,.65.65A.65.65,0,0,0,34.23,10Z" transform="translate(-5.57 -5.45)"></path><path class="cls-2" d="M16.66,13.28a2.65,2.65,0,1,1,2.65-2.65A2.65,2.65,0,0,1,16.66,13.28Zm0-3.3a.65.65,0,1,0,.65.65A.65.65,0,0,0,16.66,10Z" transform="translate(-5.57 -5.45)"></path><path class="cls-2" d="M34.37,43.17A2.65,2.65,0,1,1,37,40.52,2.65,2.65,0,0,1,34.37,43.17Zm0-3.3a.65.65,0,1,0,.65.65A.66.66,0,0,0,34.37,39.87Z" transform="translate(-5.57 -5.45)"></path><path class="cls-2" d="M16.89,43a2.65,2.65,0,1,1,2.65-2.65A2.65,2.65,0,0,1,16.89,43Zm0-3.3a.65.65,0,1,0,.65.65A.65.65,0,0,0,16.89,39.69Z" transform="translate(-5.57 -5.45)"></path><path class="cls-2" d="M8.22,28.21a2.65,2.65,0,1,1,2.65-2.65A2.65,2.65,0,0,1,8.22,28.21Zm0-3.3a.65.65,0,1,0,.65.65A.65.65,0,0,0,8.22,24.91Z" transform="translate(-5.57 -5.45)"></path><path class="cls-2" d="M42.81,28.21a2.65,2.65,0,1,1,2.65-2.65A2.65,2.65,0,0,1,42.81,28.21Zm0-3.3a.65.65,0,1,0,.65.65A.65.65,0,0,0,42.81,24.91Z" transform="translate(-5.57 -5.45)"></path><path class="cls-3" d="M33.1,29.86" transform="translate(-5.57 -5.45)"></path><path class="cls-1" d="M28.11,41.86l-1.52.87V39a1,1,0,0,0-2,0v3.72L23,41.86a1,1,0,0,0-1.36.36A1,1,0,0,0,22,43.59l3.53,2,3.54-2a1,1,0,0,0,.36-1.37A1,1,0,0,0,28.11,41.86Z" transform="translate(-5.57 -5.45)"></path><path class="cls-1" d="M42,30.51a1,1,0,0,0-1,1v1.81l-3.34-1.94a1,1,0,0,0-1.37.37,1,1,0,0,0,.37,1.36L39.93,35l-1.49.86a1,1,0,0,0,.5,1.87,1,1,0,0,0,.5-.14l3.53-2V31.51A1,1,0,0,0,42,30.51Z" transform="translate(-5.57 -5.45)"></path><path class="cls-1" d="M39.44,13.45a1,1,0,0,0-1,1.74l1.49.85-3.5,2a1,1,0,0,0,.5,1.87,1,1,0,0,0,.5-.14L41,17.75v1.82a1,1,0,0,0,2,0V15.49Z" transform="translate(-5.57 -5.45)"></path><path class="cls-1" d="M29.11,7.49l-3.54-2L22,7.49a1,1,0,0,0,1,1.73l1.55-.89v3.34a1,1,0,0,0,2,0V8.34l1.52.88a1,1,0,0,0,.49.13,1,1,0,0,0,.51-1.86Z" transform="translate(-5.57 -5.45)"></path><path class="cls-1" d="M14.55,18l-3.36-2,1.52-.87a1,1,0,0,0-1-1.74l-3.53,2v4.08a1,1,0,0,0,2,0V17.78l3.36,2a1,1,0,0,0,1.37-.37A1,1,0,0,0,14.55,18Z" transform="translate(-5.57 -5.45)"></path><path class="cls-1" d="M13.34,31.45l-3.16,1.84V31.51a1,1,0,1,0-2,0v4.07l.37.22a1.35,1.35,0,0,0,.26.15l2.9,1.67a1,1,0,0,0,1-1.73L11.19,35l3.16-1.83a1,1,0,1,0-1-1.73Z" transform="translate(-5.57 -5.45)"></path></svg>